<svg viewBox="0 0 40 40" fill="none" xmlns="http://www.w3.org/2000/svg">
  <path fill-rule="evenodd" clip-rule="evenodd"
    d="M11.9598 2.39844L24.9994 2.39844C25.248 2.39844 25.4864 2.49721 25.6623 2.67303L33.9956 11.0064C34.1714 11.1822 34.2702 11.4206 34.2702 11.6693V31.3755C34.2702 32.2753 34.2702 33.0074 34.2217 33.6016C34.1715 34.2154 34.0649 34.7641 33.8047 35.2748C33.3952 36.0785 32.7419 36.7318 31.9383 37.1413C31.4276 37.4015 30.8788 37.5081 30.265 37.5582C29.6708 37.6068 28.9388 37.6068 28.039 37.6068H11.9597C11.0599 37.6068 10.3279 37.6068 9.73368 37.5582C9.11987 37.5081 8.57114 37.4015 8.06043 37.1413C7.25682 36.7318 6.60347 36.0785 6.19401 35.2748C5.93379 34.7641 5.82719 34.2154 5.77704 33.6016C5.7285 33.0074 5.72851 32.2753 5.72852 31.3755V8.62967C5.72851 7.72987 5.7285 6.99778 5.77704 6.4036C5.82719 5.78978 5.93379 5.24106 6.19401 4.73035C6.60347 3.92674 7.25682 3.27339 8.06043 2.86393C8.57114 2.60371 9.11986 2.49712 9.73368 2.44697C10.3279 2.39842 11.06 2.39843 11.9598 2.39844ZM9.88636 4.31574C9.3885 4.35642 9.114 4.43148 8.91166 4.53457C8.46086 4.76426 8.09434 5.13078 7.86465 5.58159C7.76155 5.78392 7.68649 6.05842 7.64582 6.55629C7.60425 7.06509 7.60352 7.72038 7.60352 8.66927V31.3359C7.60352 32.2848 7.60425 32.9401 7.64582 33.4489C7.68649 33.9468 7.76155 34.2213 7.86465 34.4236C8.09434 34.8744 8.46086 35.2409 8.91166 35.4706C9.11399 35.5737 9.3885 35.6488 9.88636 35.6895C10.3952 35.731 11.0505 35.7318 11.9994 35.7318H27.9993C28.9482 35.7318 29.6035 35.731 30.1123 35.6895C30.6102 35.6488 30.8847 35.5737 31.087 35.4706C31.5378 35.2409 31.9044 34.8744 32.1341 34.4236C32.2371 34.2213 32.3122 33.9468 32.3529 33.4489C32.3945 32.9401 32.3952 32.2848 32.3952 31.3359V12.6068L26.3041 12.6068C26.0956 12.6068 25.8869 12.6068 25.709 12.5923C25.5121 12.5762 25.2721 12.5377 25.0287 12.4138C24.6955 12.244 24.4246 11.9731 24.2549 11.6399C24.1309 11.3966 24.0924 11.1565 24.0763 10.9596C24.0618 10.7818 24.0618 10.573 24.0618 10.3646L24.0619 4.27344H11.9993C11.0505 4.27344 10.3952 4.27417 9.88636 4.31574ZM25.9369 5.59926L31.0694 10.7318H26.3327C26.1471 10.7318 26.0275 10.7314 25.9406 10.728C25.9373 10.6411 25.9369 10.5215 25.9369 10.3359V5.59926ZM19.3988 14.6995C19.7464 14.4097 20.2514 14.4097 20.5991 14.6995L24.7658 18.1717C25.1635 18.5032 25.2173 19.0943 24.8858 19.4921C24.5543 19.8898 23.9632 19.9436 23.5654 19.6121L20.9364 17.4213V27.9197C20.9364 28.4374 20.5167 28.8572 19.9989 28.8572C19.4812 28.8572 19.0614 28.4374 19.0614 27.9197V17.4213L16.4324 19.6121C16.0347 19.9436 15.4435 19.8898 15.1121 19.4921C14.7806 19.0943 14.8343 18.5032 15.2321 18.1717L19.3988 14.6995Z"
    fill="#1A1A1A" />
</svg>