<svg viewBox="0 0 24 24" fill="none" xmlns="http://www.w3.org/2000/svg">
<g clip-path="url(#clip0_1011_30256)">
<path d="M18 17.0625C18.7249 17.0625 19.3125 16.4749 19.3125 15.75C19.3125 15.0251 18.7249 14.4375 18 14.4375C17.2751 14.4375 16.6875 15.0251 16.6875 15.75C16.6875 16.4749 17.2751 17.0625 18 17.0625Z" fill="black"/>
<path d="M12 7.3125C12.7249 7.3125 13.3125 6.72487 13.3125 6C13.3125 5.27513 12.7249 4.6875 12 4.6875C11.2751 4.6875 10.6875 5.27513 10.6875 6C10.6875 6.72487 11.2751 7.3125 12 7.3125Z" fill="black"/>
<path d="M6 17.0625C6.72487 17.0625 7.3125 16.4749 7.3125 15.75C7.3125 15.0251 6.72487 14.4375 6 14.4375C5.27513 14.4375 4.6875 15.0251 4.6875 15.75C4.6875 16.4749 5.27513 17.0625 6 17.0625Z" fill="black"/>
<path d="M3 13.5C2.64348 13.9754 2.40503 14.5286 2.30429 15.1142C2.20355 15.6998 2.2434 16.301 2.42057 16.8681C2.59774 17.4353 2.90715 17.9522 3.32331 18.3764C3.73946 18.8005 4.25044 19.1197 4.81415 19.3076C5.37785 19.4955 5.97813 19.5467 6.56553 19.4571C7.15293 19.3675 7.71063 19.1396 8.19266 18.7922C8.6747 18.4447 9.06727 17.9877 9.33804 17.4588C9.6088 16.9299 9.75 16.3442 9.75 15.75H18" stroke="black" stroke-width="1.5" stroke-linecap="round" stroke-linejoin="round"/>
<path d="M15.4369 4.50063C15.2011 3.96183 14.8419 3.48604 14.3883 3.11168C13.9347 2.73733 13.3994 2.47491 12.8257 2.34563C12.252 2.21635 11.6559 2.22382 11.0856 2.36746C10.5152 2.51109 9.9867 2.78684 9.54264 3.17246C9.09857 3.55807 8.75143 4.04272 8.52926 4.58726C8.30708 5.1318 8.2161 5.72097 8.26366 6.30716C8.31122 6.89336 8.49599 7.46015 8.80304 7.96176C9.1101 8.46336 9.53083 8.88571 10.0312 9.19469L6 15.7506" stroke="black" stroke-width="1.5" stroke-linecap="round" stroke-linejoin="round"/>
<path d="M18 19.5C18.5795 19.4994 19.1509 19.3645 19.6694 19.1059C20.188 18.8474 20.6396 18.4721 20.9888 18.0097C21.3379 17.5473 21.5752 17.0102 21.6819 16.4407C21.7886 15.8711 21.7619 15.2846 21.6039 14.7271C21.4458 14.1697 21.1607 13.6564 20.7709 13.2276C20.3812 12.7988 19.8974 12.4662 19.3574 12.2558C18.8175 12.0455 18.2362 11.9631 17.6591 12.0152C17.082 12.0672 16.5248 12.2523 16.0313 12.5559L12 6" stroke="black" stroke-width="1.5" stroke-linecap="round" stroke-linejoin="round"/>
</g>
<defs>
<clipPath id="clip0_1011_30256">
<rect width="24" height="24" fill="white"/>
</clipPath>
</defs>
</svg>
